<?xml version="1.0" standalone="no"?>
<!DOCTYPE svg PUBLIC "-//W3C//DTD SVG 1.1//EN" "http://www.w3.org/Graphics/SVG/1.1/DTD/svg11.dtd" >
<svg xmlns="http://www.w3.org/2000/svg">
<metadata>Generated by IcoMoon</metadata>
<defs>
<font id="eurofins-offsitelocations" horiz-adv-x="1024">
<font-face units-per-em="1024" ascent="960" descent="-64" />
<missing-glyph horiz-adv-x="1024" />
<glyph unicode="&#x20;" horiz-adv-x="512" d="" />
<glyph unicode="&#xe900;" glyph-name="Eurofins-CLL" d="M445.823 899.396c-39.706-7.663-94.041-39.706-128.871-74.536-78.716-78.716-105.186-181.116-73.143-284.212 23.684-78.019 75.233-136.533 153.252-174.846 41.796-20.201 50.852-21.595 114.939-21.595s73.143 1.393 114.939 21.595c78.019 38.313 129.567 96.827 153.252 174.846 32.044 102.4 6.966 202.014-69.66 280.729-55.728 57.121-103.097 77.322-184.599 80.109-34.133 0.697-70.356 0-80.109-2.090zM221.518 353.263c-102.4-76.626-167.88-179.026-198.531-308.593-16.718-73.143-59.211-66.873 489.012-66.873s505.731-6.269 489.012 66.873c-31.347 131.657-102.4 241.023-205.497 314.166-50.155 36.223-39.010 37.616-110.063-10.449-105.883-71.053-261.921-65.48-366.411 13.235-20.201 14.629-39.706 27.167-43.886 27.167-3.483 0-27.864-16.022-53.638-35.527z" />
<glyph unicode="&#xe901;" glyph-name="Eurofins-CollectionVisit" d="M323.222 741.268c-13.235-13.235-23.684-29.954-23.684-38.313 0-13.932-3.483-14.629-71.053-14.629-104.49 0-114.242-6.966-174.15-118.422l-46.672-87.075v-119.815l-0.697-120.512h143.499l9.056-24.381c39.010-108.669 183.902-115.635 231.967-10.449l16.022 34.83h125.388l125.388-0.697 17.415-36.223c48.762-101.007 178.329-97.524 224.305 6.966l13.235 29.257 86.378 4.18 2.090 208.98c2.090 243.81 0.697 263.314-26.471 290.482l-19.505 19.505h-608.827l-23.684-23.684zM742.574 611.701h114.242v-139.32h-229.878v-66.177l-135.837 135.837 66.177 66.177 66.177 66.873 2.090-32.044 2.090-31.347h114.939zM299.537 566.422v-45.279h-90.558c-50.155 0-90.558 1.393-90.558 3.483 0 7.663 29.954 62.694 40.403 75.233 8.359 9.752 22.291 11.842 75.929 11.842h64.784v-45.279zM313.469 291.265c18.112-18.112 17.415-47.369-1.393-67.57s-45.279-20.201-66.177-0.697c-32.044 29.954-11.146 82.199 32.74 82.199 11.842 0 27.167-6.269 34.83-13.932zM821.29 287.086c8.359-10.449 14.629-24.381 14.629-32.044 0-18.112-30.65-47.369-49.459-47.369-22.291 0-48.065 26.471-48.065 50.155 0 44.582 55.728 64.087 82.895 29.257z" />
<glyph unicode="&#xe902;" glyph-name="Eurofins-Depot" d="M285.605 688.327l-226.395-225.698 34.83-35.527 34.83-34.83 188.082 188.082c103.793 103.097 191.565 188.082 195.048 188.082s91.254-84.985 195.048-188.082l188.082-188.082 69.66 69.66-226.395 226.395-226.395 225.698-226.395-225.698zM363.624 536.468l-147.679-148.376 1.393-190.868 2.090-191.565h188.082l2.090 141.41 1.393 140.713h202.014v-133.747c0-73.839 2.786-138.623 5.573-143.499 4.876-6.269 28.561-8.359 96.131-6.966l89.861 2.090 2.090 191.565 1.393 191.565-147.679 148.376-148.376 147.679-148.376-148.376z" />
<glyph unicode="&#xe903;" glyph-name="Eurofins-MaterialDeliveryVisit" d="M733.518 953.034c-31.347-12.539-354.569-210.373-365.714-223.608-26.471-31.347-18.112-51.548 92.648-236.844 58.514-96.131 111.456-181.116 118.422-188.082 8.359-8.359 22.988-13.235 40.403-13.235 22.988 0 55.728 16.718 202.014 104.49 95.434 57.818 180.419 112.849 188.082 123.298 8.359 9.752 14.629 26.471 14.629 36.92 0 12.539-39.706 84.288-110.759 202.71-86.378 142.803-115.635 185.992-130.961 192.261-22.988 9.752-28.561 10.449-48.762 2.090zM805.965 578.961l-67.57-68.267v66.177h-229.878v139.32h229.878v66.177l67.57-68.267 68.267-67.57-68.267-67.57zM11.842 736.392c-16.718-9.752-16.022-45.279 1.393-55.031 7.663-3.483 48.065-6.966 90.558-6.966 74.536 0 78.019-0.697 97.524-18.808 11.146-11.146 84.985-127.478 164.397-259.831s149.769-246.596 156.735-254.259c12.539-13.235 12.539-14.629-3.483-32.74-41.796-48.065-21.595-127.478 39.706-157.431 110.063-55.031 206.89 89.165 117.029 172.756l-20.898 19.505 181.116 109.366c170.667 103.097 181.116 110.063 181.116 129.567 0 15.325-4.876 22.291-17.415 28.561-15.325 6.966-33.437-2.090-206.89-106.58-207.586-124.691-208.98-125.388-219.429-119.118-4.18 2.786-73.839 114.939-153.948 248.686-80.805 134.444-155.341 253.562-166.487 264.011-35.527 36.223-66.873 45.976-151.859 45.279-41.796 0-82.199-2.786-89.165-6.966z" />
<glyph unicode="&#xe904;" glyph-name="Eurofins-Move" d="M787.156 806.748v-90.558h188.082v181.116h-188.082v-90.558zM925.083 801.872l2.090-43.886h-91.254v91.254l87.075-4.18 2.090-43.189zM807.358 645.137c-13.932-35.527-68.267-88.468-110.759-110.063-40.403-20.201-96.827-34.133-215.946-52.245-176.936-27.167-265.404-65.48-321.132-139.32-22.291-29.257-61.997-110.063-61.997-125.388 0-2.090 22.988-3.483 50.852-3.483l50.155 0.697 13.235 28.561c30.65 65.48 107.276 115.635 206.89 134.444 32.044 5.573 74.536 13.932 93.344 17.415 19.505 3.483 50.852 8.359 69.66 9.752 19.505 2.090 57.818 10.449 85.682 18.112 111.456 31.347 176.936 80.805 220.125 168.577 36.223 71.75 35.527 75.233-22.988 75.233-47.369 0-48.065 0-57.121-22.291zM41.796 75.32v-90.558h188.082v181.116h-188.082v-90.558zM179.722 77.41l2.090-43.886h-91.254v91.254l87.075-4.18 2.090-43.189z" />
<glyph unicode="&#xe905;" glyph-name="Eurofins-OffSiteContainer" d="M338.547 914.024c-22.988-22.291-5.573-58.514 27.167-58.514h16.718l2.090-95.434 2.090-96.131-51.548-87.075c-28.561-48.065-91.254-151.162-138.623-229.878-115.635-190.171-133.747-225.698-133.747-265.404 0-41.796 27.864-82.199 72.446-102.4 31.347-15.325 37.616-15.325 372.68-15.325 362.928 0 362.231 0 406.814 34.83 39.706 31.347 50.852 89.165 27.167 140.016-6.269 13.235-78.716 135.837-160.218 272.37l-148.376 247.293-1.393 98.22-1.393 98.917h18.808c21.595 0 40.403 16.022 40.403 34.83 0 32.74-11.842 34.83-181.116 34.83-135.14 0-160.914-1.393-169.97-11.146zM564.245 751.717v-103.793l22.988-41.099c13.235-22.291 52.941-89.165 89.165-148.376 36.92-59.211 68.267-112.849 70.356-118.422 3.483-9.056-25.774-10.449-239.63-8.359l-243.81 2.090 9.752 15.325c5.573 8.359 48.065 78.716 94.737 156.038l84.985 141.41v208.98h111.456v-103.793z" />
<glyph unicode="&#xe906;" glyph-name="Eurofins-OffSiteParcel" d="M484.136 948.854c-19.505-9.056-89.165-36.223-299.537-117.029-45.976-18.112-91.254-35.527-101.007-40.403-19.505-8.359-39.010 2.090 184.599-101.007 53.638-25.078 127.478-59.211 163.701-76.626s72.446-31.347 80.109-31.347c12.539 0 58.514 20.201 285.605 126.084 30.65 14.629 78.716 36.92 106.58 49.459s48.065 25.774 45.279 28.561c-2.786 2.786-43.189 19.505-89.165 37.616-118.422 45.279-183.902 71.053-270.977 105.883-42.493 16.718-78.019 29.954-80.109 29.257-2.090 0-13.235-4.876-25.078-10.449zM41.796 463.325v-287.695l36.92-18.808c19.505-9.752 66.177-34.133 102.4-53.638 75.233-41.099 274.46-146.982 298.144-159.521l15.325-8.359-1.393 307.2-2.090 306.503-87.075 41.099c-48.065 22.291-104.49 48.762-125.388 57.818-20.898 9.752-79.412 36.92-129.567 60.604-50.155 22.988-94.737 42.493-98.917 42.493-6.269 0-8.359-71.053-8.359-287.695zM870.748 705.741c-51.548-23.684-149.072-68.963-215.946-99.614l-121.905-57.121-2.090-306.503c-0.697-168.577 0-306.503 1.393-306.503s24.381 11.842 50.852 26.471c25.774 14.629 84.985 46.672 130.961 71.053 45.976 23.684 99.614 52.245 118.422 62.694 19.505 10.449 60.604 32.74 92.648 49.459l57.121 30.65v286.999c0 225.698-2.090 287.695-8.359 286.999-4.876 0-51.548-20.201-103.097-44.582z" />
<glyph unicode="&#xe907;" glyph-name="Eurofins-SampleDeliveryVisit" d="M564.245 801.176c-9.752-5.573-29.954-18.808-45.279-29.257s-41.099-25.774-56.424-33.437c-31.347-16.022-43.886-34.83-29.257-44.582 4.876-2.786 15.325-4.18 22.988-2.090 11.146 2.090 18.112-4.876 34.133-33.437 11.146-20.201 23.684-38.313 27.864-41.099 4.876-3.483 9.056-68.963 11.146-188.082 2.786-101.007 3.483-183.902 3.483-185.295-0.697-0.697-61.301 98.22-134.444 219.429-72.446 121.905-140.016 228.484-149.072 236.147-36.223 33.437-55.728 38.313-149.769 36.223-74.536-2.090-88.468-4.18-95.434-13.932-5.573-9.056-5.573-16.022 0-24.381 6.269-10.449 21.595-13.235 90.558-16.022 85.682-3.483 100.31-8.359 122.601-37.616 6.269-8.359 75.929-123.298 155.341-255.652 78.716-131.657 148.376-243.113 154.645-247.989 9.056-6.966 8.359-11.146-7.663-34.83-48.065-69.66 1.393-162.307 87.075-162.307 43.189 0 75.233 22.291 92.648 64.087 18.112 43.886 11.146 76.626-22.988 111.456l-26.471 25.774 150.465 90.558c220.822 133.050 218.035 130.961 215.249 148.376-1.393 7.663-8.359 18.808-16.718 24.381-13.235 8.359-29.954 0-211.069-109.366-108.669-64.784-201.317-118.422-206.89-118.422-9.056 0-46.672 48.762-41.099 54.335 1.393 1.393 9.752-2.090 18.808-8.359 25.774-18.112 57.121-13.932 101.007 14.629 22.291 13.932 41.796 27.167 43.886 29.257s13.235 9.056 24.381 15.325c71.053 39.010 211.766 125.388 228.484 140.713 20.898 19.505 25.774 55.728 10.449 76.626-9.056 11.146-131.657 78.019-261.224 142.803-55.031 27.167-65.48 34.83-75.929 58.514-6.269 14.629-13.932 26.471-16.718 26.471-9.752 0-21.595 36.92-13.932 44.582 11.146 11.146 8.359 29.954-5.573 33.437-6.966 2.090-20.201-1.393-29.257-6.966zM590.716 702.259c29.954-48.065 30.65-48.762 117.029-91.951 55.031-27.864 85.682-47.369 84.985-53.638-2.090-10.449-211.766-140.016-226.395-140.016-6.966 0-9.056 24.381-9.056 98.22v98.22l-27.864 46.672c-15.325 25.774-27.864 51.548-27.864 57.121 0 11.146 32.74 34.133 48.762 33.437 5.573 0 23.684-21.595 40.403-48.065z" />
<glyph unicode="&#xe908;" glyph-name="Eurofins-SamplingPoint" d="M463.238 948.158c-65.48-9.056-146.982-50.155-186.688-95.434-27.167-31.347-59.211-85.682-71.053-122.601-24.381-71.053-12.539-183.205 24.381-247.293 6.966-11.146 67.57-130.264 135.837-264.707 68.267-133.747 126.781-249.382 130.264-257.045 6.269-11.842 7.663-11.146 17.415 6.966 5.573 11.146 66.873 131.657 135.837 267.494s128.174 250.776 130.961 254.259c3.483 4.18 12.539 29.954 20.898 58.514 44.582 146.286-25.774 305.11-163.701 370.59-22.988 10.449-61.997 22.988-87.075 26.471-45.976 7.663-49.459 7.663-87.075 2.786zM582.356 806.748c65.48-32.044 101.703-86.378 105.883-161.611 4.876-78.716-34.133-143.499-107.276-176.936-130.961-60.604-284.212 49.459-264.707 190.171 17.415 128.871 151.859 203.407 266.101 148.376z" />
<glyph unicode="&#xe909;" glyph-name="Eurofins-Site" d="M408.903 946.068c-275.156-57.818-454.182-330.188-394.275-602.558 43.886-201.317 198.531-355.265 397.758-396.365 172.060-35.527 346.21 20.201 468.811 149.769 72.446 76.626 110.759 149.769 131.657 251.472 14.629 70.356 13.932 126.781-2.090 204.8-31.347 151.162-130.264 279.336-267.494 346.906-114.242 55.728-218.732 70.356-334.367 45.976zM599.075 813.018c130.264-29.954 248.686-146.982 278.639-276.55 10.449-45.976 10.449-132.354 0-179.026-28.561-126.781-147.679-245.899-275.156-275.156-52.941-12.539-140.016-10.449-188.082 2.786-132.354 38.313-238.237 147.679-267.494 275.853-10.449 45.279-9.056 136.533 2.786 180.419 34.83 130.961 142.803 238.237 270.28 269.584 44.582 10.449 137.23 11.842 179.026 2.090zM448.61 638.171c-36.92-11.842-87.075-55.728-109.366-94.737-15.325-27.864-21.595-49.459-24.381-85.682-2.786-43.886-1.393-52.245 18.808-93.344 38.313-77.322 98.917-114.939 184.599-114.939 106.58 0 195.048 91.254 194.351 199.227-1.393 110.759-90.558 199.227-199.227 197.137-23.684-0.697-52.941-4.18-64.784-7.663z" />
<glyph unicode="&#xe90a;" glyph-name="Eurofins-SiteArea" d="M80.805 464.022c-41.099-165.79-76.626-307.2-78.019-313.469-3.483-11.842 24.381-12.539 509.214-12.539s512.697 0.697 509.214 12.539c-1.393 6.269-36.92 147.679-78.019 313.469l-74.536 300.931h-713.317l-74.536-300.931z" />
<glyph unicode="&#xe90b;" glyph-name="Eurofins-Support" d="M408.511 881.566c-2.179-7.626-6.536-31.591-7.626-52.289-2.179-27.234-10.894-41.396-29.413-51.2-23.966-10.894-31.591-8.715-63.183 19.609-20.698 17.43-40.306 31.591-44.664 31.591-9.804 0-132.902-123.098-132.902-132.902 0-4.357 14.162-23.966 31.591-44.664 28.323-31.591 30.502-39.217 19.609-63.183-10.894-20.698-25.055-27.234-62.094-31.591l-49.021-5.447v-185.191l49.021-5.447c37.038-4.357 51.2-10.894 62.094-31.591 10.894-23.966 8.715-31.591-19.609-63.183-17.43-20.698-31.591-40.306-31.591-44.664 0-9.804 123.098-132.902 132.902-132.902 4.357 0 23.966 14.162 44.664 31.591 31.591 28.323 39.217 30.502 63.183 19.609 20.698-10.894 27.234-25.055 31.591-62.094l5.447-49.021h185.191l5.447 49.021c4.357 37.038 10.894 51.2 31.591 62.094 23.966 10.894 31.591 8.715 63.183-19.609 20.698-17.43 40.306-31.591 44.664-31.591 9.804 0 132.902 123.098 132.902 132.902 0 4.357-14.162 23.966-31.591 44.664-28.323 31.591-30.502 39.217-19.609 63.183 10.894 20.698 25.055 27.234 62.094 31.591l49.021 5.447v185.191l-49.021 5.447c-37.038 4.357-51.2 10.894-62.094 31.591-10.894 23.966-8.715 31.591 19.609 63.183 17.43 20.698 31.591 40.306 31.591 44.664 0 9.804-123.098 132.902-132.902 132.902-4.357 0-23.966-14.162-44.664-31.591-31.591-28.323-39.217-30.502-63.183-19.609-20.698 10.894-27.234 25.055-31.591 62.094l-5.447 49.021-90.417 3.268c-65.362 2.179-91.506-1.089-94.774-10.894zM622.026 644.085c68.63-45.753 91.506-91.506 91.506-185.191 0-68.63-4.357-88.238-26.145-120.919-47.932-69.719-91.506-91.506-186.281-91.506s-138.349 21.787-185.191 90.417c-30.502 43.574-41.396 143.796-22.877 200.443 15.251 44.664 69.719 103.489 115.472 125.277 51.2 22.877 165.583 13.072 213.515-18.519zM441.191 616.851c-152.511-54.468-142.706-278.877 14.162-321.362 156.868-41.396 276.698 135.081 181.923 270.162-38.128 52.289-127.455 76.255-196.085 51.2z" />
<glyph unicode="&#xe90c;" glyph-name="Anomaly" d="M512 960c-282.77 0-512-229.23-512-512s229.23-512 512-512c282.77 0 512 229.23 512 512v0c0 282.77-229.23 512-512 512v0zM541.37 188.486c-11.547-9.768-26.608-15.707-43.055-15.707s-31.507 5.938-43.153 15.788l0.098-0.081c-10.075 10.269-16.293 24.352-16.293 39.888 0 15.722 6.368 29.956 16.666 40.264v0c11.363 9.887 26.313 15.914 42.671 15.914s31.307-6.027 42.75-15.981l-0.079 0.067c10.297-10.308 16.665-24.542 16.665-40.264 0-15.536-6.218-29.619-16.302-39.897l0.009 0.009zM655.127 515.305c-13.373-23.687-29.578-43.94-48.521-61.247l-0.189-0.17-29.696-28.207c-17.295-15.927-28.961-37.732-31.816-62.228l-0.044-0.469-1.466-22.365h-93.789c-0.102 2.502-0.16 5.439-0.16 8.389 0 26.309 4.621 51.538 13.096 74.921l-0.485-1.53c10.9 23.822 26.335 43.849 45.349 59.735l0.265 0.216c16.888 13.904 31.479 29.708 43.716 47.273l0.502 0.762c6.894 11.136 10.987 24.637 11.008 39.092v0.006q0 62.022-57.158 61.999c-0.802 0.040-1.742 0.062-2.687 0.062-15.884 0-30.272-6.406-40.721-16.776l0.004 0.004c-10.583-11.572-17.066-27.048-17.066-44.037 0-0.702 0.011-1.401 0.033-2.098l-0.003 0.102h-106.24c-0.079 1.765-0.124 3.834-0.124 5.914 0 40.945 17.44 77.817 45.296 103.592l0.093 0.085c33.919 24.789 76.452 39.664 122.459 39.664 44.764 0 86.239-14.082 120.237-38.056l-0.659 0.441c26.523-24.512 43.075-59.478 43.075-98.31 0-2.757-0.083-5.494-0.248-8.21l0.018 0.373c0-0.068 0-0.148 0-0.228 0-21.429-5.205-41.642-14.42-59.444l0.34 0.722z" />
<glyph unicode="&#xe90d;" glyph-name="Categorization" horiz-adv-x="1025" d="M530.298 360.248v-424.248h424.224v424.248zM0-64h424.224v424.248h-424.224zM0 890.523v-424.224h424.224v424.224zM724.315 960l-300.209-299.614 300.209-300.209 300.209 300.209z" />
<glyph unicode="&#xe90e;" glyph-name="Conditions" horiz-adv-x="1243" d="M0 301.712h292.575v292.575h-292.575zM0-64h292.575v292.575h-292.575zM0 667.425h292.575v292.575h-292.575zM365.712 301.712h877.726v292.575h-877.726zM365.712-64h877.726v292.575h-877.726zM365.712 960v-292.575h877.726v292.575z" />
<glyph unicode="&#xe90f;" glyph-name="Configuration" horiz-adv-x="1170" d="M512 886.857v18.279c-0.095 30.262-24.602 54.769-54.855 54.864h-182.852c-30.262-0.095-54.769-24.602-54.864-54.855v-18.288h-219.429v-146.286h219.429v-18.279c0.095-30.262 24.602-54.769 54.855-54.864h182.88c30.262 0.095 54.769 24.602 54.864 54.855v18.288h658.258v146.286zM292.571 740.571v146.286h146.286v-146.286zM950.857 539.422c-0.095 30.262-24.602 54.769-54.855 54.864h-182.852c-30.262-0.095-54.769-24.602-54.864-54.855v-18.288h-658.286v-146.286h658.286v-18.279c0.095-30.262 24.602-54.769 54.855-54.864h182.88c30.262 0.095 54.769 24.602 54.864 54.855v18.288h219.401v146.286h-219.429zM731.429 374.857v146.286h146.286v-146.286zM512 173.707c-0.095 30.262-24.602 54.769-54.855 54.864h-182.852c-30.262-0.095-54.769-24.602-54.864-54.855v-18.288h-219.429v-146.286h219.429v-18.279c0.095-30.262 24.602-54.769 54.855-54.864h182.88c30.262 0.095 54.769 24.602 54.864 54.855v18.288h658.258v146.286h-658.286zM292.571 9.143v146.286h146.286v-146.286z" />
<glyph unicode="&#xe910;" glyph-name="Date" horiz-adv-x="922" d="M819.196 857.598h-51.191v102.402h-102.402v-102.402h-409.608v102.402h-102.402v-102.402h-51.191c-56.274-0.035-101.88-45.662-101.88-101.941 0-0.162 0-0.324 0.001-0.486v0.025l-0.524-716.794c0-0.006 0-0.014 0-0.021 0-56.544 45.838-102.381 102.381-102.381 0.007 0 0.015 0 0.022 0h716.793c56.502 0.131 102.271 45.9 102.402 102.39v716.807c-0.131 56.502-45.9 102.271-102.39 102.402h-0.013zM819.196 38.402h-716.794v563.201h716.794zM204.804 499.201h255.995v-255.995h-255.995z" />
<glyph unicode="&#xe911;" glyph-name="Description" horiz-adv-x="956" d="M0 72.539v-136.539h955.73v136.539zM307.202 359.258h341.326l61.449-150.18h143.36l-324.275 750.922h-102.393l-324.275-750.922h143.36zM477.865 824.829l127.655-342.695h-255.31z" />
<glyph unicode="&#xe912;" glyph-name="Drawing-icon" d="M512 960c-282.77 0-512-229.23-512-512s229.23-512 512-512v0c47.13 0.037 85.323 38.252 85.323 85.388 0 22.139-8.426 42.31-22.245 57.482l0.061-0.068c-13.418 14.967-21.621 34.849-21.621 56.646 0 46.953 38.063 85.015 85.015 85.015 0.115 0 0.23 0 0.345-0.001h100.683c157.057 0.066 284.36 127.361 284.439 284.408v0.008c0 251.462-229.26 455.121-512 455.121zM199.121 448c-47.133 0-85.341 38.209-85.341 85.341s38.209 85.341 85.341 85.341c47.133 0 85.341-38.209 85.341-85.341v0c0-0.035 0-0.075 0-0.116 0-47.068-38.156-85.225-85.225-85.225-0.041 0-0.082 0-0.123 0h0.006zM369.78 675.561c-47.133 0-85.341 38.209-85.341 85.341s38.209 85.341 85.341 85.341c47.133 0 85.341-38.209 85.341-85.341v0c0-0.035 0-0.075 0-0.116 0-47.068-38.156-85.225-85.225-85.225-0.041 0-0.082 0-0.123 0h0.006zM654.22 675.561c-47.133 0-85.341 38.209-85.341 85.341s38.209 85.341 85.341 85.341c47.133 0 85.341-38.209 85.341-85.341v0c0-0.035 0-0.075 0-0.116 0-47.068-38.156-85.225-85.225-85.225-0.041 0-0.082 0-0.123 0h0.006zM824.902 448c-47.133 0-85.341 38.209-85.341 85.341s38.209 85.341 85.341 85.341c47.133 0 85.341-38.209 85.341-85.341v0c0-0.035 0-0.075 0-0.116 0-47.068-38.156-85.225-85.225-85.225-0.041 0-0.082 0-0.123 0h0.006z" />
<glyph unicode="&#xe913;" glyph-name="Equipment" horiz-adv-x="998" d="M848.016-44.208l-282.58 283.456c-3.88 5.397-6.321 12.061-6.641 19.277l-0.003 0.077c1.16 7.004 4.341 13.12 8.915 17.889l-0.011-0.012 66.735 65.143c5.299 4.21 11.977 6.897 19.264 7.308l0.090 0.004c7.028-1.376 13.072-4.899 17.578-9.847l0.023-0.026 280.781-281.588c1.294-1.216 2.447-2.552 3.452-4l0.054-0.083c2.726-3.923 4.355-8.786 4.355-14.029 0-8.419-4.2-15.857-10.618-20.334l-0.081-0.053-62.975-63.159c-0.295-0.327-0.596-0.628-0.912-0.913l-0.011-0.010c-4.723-4.526-11.144-7.312-18.215-7.312-0.011 0-0.022 0-0.033 0h0.002c-0.014 0-0.031 0-0.048 0-7.521 0-14.307 3.149-19.11 8.201l-0.011 0.011zM172.893-49.052c-40.795 12.405-72.497 43.318-85.753 82.708l-0.266 0.912c-2.123 5.182-3.355 11.197-3.355 17.499 0 14.269 6.317 27.063 16.307 35.738l0.058 0.049c74.047 73.563 196.076 196.076 269.547 270.285 8.87 10.538 22.067 17.188 36.818 17.188 3.894 0 7.68-0.464 11.306-1.338l-0.328 0.067c0.524-0.056 1.131-0.088 1.746-0.088 4.527 0 8.649 1.734 11.738 4.574l-0.012-0.011c67.173 66.896 182.65 182.627 249.132 250.17 7.407 7.99 13.599 17.247 18.192 27.382l0.262 0.645c3.886 7.407 6.166 16.183 6.166 25.491 0 19.57-10.079 36.786-25.329 46.741l-0.214 0.131c-11.047 7.676-24.030 13.48-38.023 16.61l-0.731 0.137c-19.963 3.788-37.236 13.406-50.451 26.991l-0.021 0.021c-12.111 11.857-23.967 23.806-35.709 35.963-10.288 10.703-11.372 18.777-1.015 29.458q50.749 52.179 102.744 102.928c10.865 10.565 18.57 9.389 29.342-1.084q17.716-17.209 34.901-34.901c12.359-11.692 21.669-26.482 26.693-43.131l0.181-0.698c3.335-9.482 7.228-17.63 11.868-25.275l-0.334 0.593c4.682-14.009 17.682-23.927 32.998-23.927 1.019 0 2.028 0.044 3.025 0.13l-0.13-0.009c8.402-0.482 15.874-4.106 21.331-9.705l0.007-0.007q62.537-61.429 123.966-124.081c28.685-31.584 46.259-73.712 46.297-119.945v-0.008c0.246-6.122 0.387-13.309 0.387-20.528 0-64.557-11.221-126.494-31.819-183.966l1.19 3.805c-0.346-0.669-49.642-49.78-51.418-51.626-17.531 17.185-6.367 110.079-6.182 115.039 0.406 5.423 0.637 11.746 0.637 18.124 0 36.142-7.428 70.549-20.84 101.777l0.642-1.679c-9.611 21.561-24.276 39.381-42.547 52.495l-0.382 0.261c-2.952 2.556-6.829 4.113-11.070 4.113-3.96 0-7.603-1.357-10.488-3.632l0.036 0.027c-10.701-7.19-20.028-14.539-28.768-22.521l0.187 0.169c-74.232-73.955-196.514-196.929-270.677-271.023-4.615-3.652-7.549-9.253-7.549-15.54 0-1.757 0.229-3.461 0.659-5.083l-0.031 0.138c0.719-2.891 1.131-6.21 1.131-9.625 0-12.159-5.226-23.097-13.555-30.691l-0.033-0.030c-76.124-76.331-200.689-201.289-276.813-277.689-7.801-8.202-18.794-13.306-30.979-13.31h-0.001c-5.287 0.056-10.321 1.067-14.962 2.867l0.29-0.099zM363.548 441.553l-106.573 106.873c-18.751-7.466-40.48-11.796-63.221-11.796-49.27 0-93.794 20.325-125.643 53.048l-0.038 0.039c-32.763 32.211-53.066 77.006-53.066 126.544 0 27.916 6.448 54.327 17.935 77.824l-0.463-1.048 120.529-118.13 82.144 82.26-117.807 118.13c22.172 10.457 48.161 16.562 75.575 16.562 49.574 0 94.486-19.962 127.136-52.286l-0.015 0.015c32.68-32.085 52.934-76.729 52.934-126.104 0-22.79-4.315-44.572-12.173-64.574l0.415 1.2 106.573-106.873c1.319-1.237 2.49-2.604 3.498-4.091l0.054-0.085c2.677-3.898 4.275-8.718 4.275-13.912 0-8.464-4.244-15.936-10.72-20.405l-0.083-0.054-62.952-63.159c-0.323-0.3-0.6-0.646-0.946-0.923-4.728-4.539-11.161-7.335-18.246-7.336v0c-7.534 0.004-14.326 3.181-19.111 8.268l-0.013 0.014z" />
<glyph unicode="&#xe914;" glyph-name="GPS" d="M512 634.19c-102.83 0-186.19-83.36-186.19-186.19s83.36-186.19 186.19-186.19c102.83 0 186.19 83.36 186.19 186.19v0c0 0.020 0 0.043 0 0.067 0 102.793-83.33 186.123-186.123 186.123-0.023 0-0.047 0-0.070 0h0.003zM928.122 494.547c-22.367 194.424-175.107 347.164-367.592 369.349l-1.938 0.182v95.922h-93.139v-95.878c-194.424-22.367-347.164-175.107-369.349-367.592l-0.182-1.938h-95.922v-93.095h95.878c22.367-194.424 175.107-347.164 367.592-369.349l1.938-0.182v-95.967h93.095v95.878c194.424 22.367 347.164 175.107 369.349 367.592l0.182 1.938h95.967v93.139h-95.878zM512 122.19c-179.94 0-325.81 145.87-325.81 325.81s145.87 325.81 325.81 325.81c179.94 0 325.81-145.87 325.81-325.81v0c0-0.066 0-0.144 0-0.223 0-179.817-145.77-325.587-325.587-325.587-0.078 0-0.157 0-0.235 0h0.012z" />
<glyph unicode="&#xe915;" glyph-name="Installation-icon" horiz-adv-x="1219" d="M605.547 103.612h-564.892c-0.424-0.016-0.921-0.026-1.421-0.026-21.845 0-39.554 17.709-39.554 39.554 0 2.479 0.228 4.906 0.665 7.259l-0.038-0.244v142.778c-0.009 0.332-0.015 0.723-0.015 1.116 0 23.429 18.993 42.421 42.421 42.421 0.392 0 0.783-0.005 1.173-0.016l-0.057 0.001h564.815c46.39 99.731 145.737 167.632 260.943 167.632 123.464 0 228.713-77.984 269.179-187.381l0.643-1.987-270.017-3.098v-186.249h266.893c-41.897-110.908-146.788-188.528-269.929-189.449l-0.113-0.001c-0.936-0.011-2.042-0.018-3.149-0.018-114.3 0-212.696 68.095-256.832 165.93l-0.717 1.776zM856.721 597.716l145.722 145.722c-55.471 47.060-127.878 75.677-206.97 75.677-141.65 0-261.862-91.79-304.4-219.134l-0.656-2.265-95.032 31.387c56.836 170.146 214.709 290.614 400.719 290.614 106.729 0 204.194-39.661 278.462-105.049l-0.466 0.402 144.903 144.903v-362.284z" />
<glyph unicode="&#xe916;" glyph-name="Location-icon-1" horiz-adv-x="969" d="M964.197 33.182l-69.979 210.025h-76.807l42.666-204.848h-750.935l42.666 204.848h-76.807l-70.045-210.025c-3.718-8.238-5.884-17.859-5.884-27.986 0-38.381 31.114-69.494 69.494-69.494 2.266 0 4.506 0.108 6.716 0.32l-0.281-0.022h819.196c1.94-0.193 4.193-0.302 6.472-0.302 38.344 0 69.428 31.084 69.428 69.428 0 10.155-2.18 19.8-6.098 28.494l0.177-0.438zM740.604 704.006c0 141.382-114.613 255.994-255.994 255.994s-255.994-114.613-255.994-255.994v0c0-244.497 255.994-511.989 255.994-511.989s255.994 267.514 255.994 511.989zM346.326 700.944c0 76.348 61.892 138.24 138.24 138.24s138.24-61.892 138.24-138.24c0-76.348-61.892-138.24-138.24-138.24v0c-0.026 0-0.057 0-0.088 0-76.299 0-138.152 61.853-138.152 138.152 0 0.031 0 0.062 0 0.093v-0.005z" />
<glyph unicode="&#xe917;" glyph-name="Location-icon-2" horiz-adv-x="1877" d="M1109.333 960l-319.992-426.667 243.214-324.254-136.539-102.412c-144.211 192.008-384.015 512-384.015 512l-512-682.667h1877.364z" />
<glyph unicode="&#xe918;" glyph-name="Location-icon-3" horiz-adv-x="837" d="M474.383-52.092v207.458h-115.863v-207.434h-270.998c-0.007 0-0.015 0-0.024 0-15.468 0-28.007 12.539-28.007 28.007v0 603.702c0 15.481 12.55 28.031 28.031 28.031h657.883c15.481 0 28.031-12.55 28.031-28.031v0-603.702c-0.014-15.476-12.555-28.017-28.030-28.031h-0.001zM541.686 39.503h115.863v115.863h-115.863zM175.354 39.503h115.863v115.863h-115.863zM541.686 220.787h115.863v115.863h-115.863zM358.52 220.787h115.887v115.863h-115.863zM175.354 220.787h115.863v115.863h-115.863zM541.686 402.072h115.863v115.958h-115.863zM358.52 402.072h115.887v115.958h-115.863zM175.354 402.072h115.863v115.958h-115.863zM28.769 642.085c0 0 0 0 0 0-9.304 0-16.848 7.536-16.861 16.836v0.001c0 0.020 0 0.045 0 0.069 0 5.668 2.8 10.681 7.093 13.733l0.052 0.035 389.076 271.736c2.692 1.902 6.042 3.039 9.657 3.039s6.965-1.138 9.71-3.075l-0.053 0.036 389.076-271.665c4.381-3.088 7.208-8.126 7.208-13.824 0-3.616-1.138-6.966-3.075-9.711l0.036 0.053c-3.087-4.344-8.1-7.145-13.768-7.145-0.016 0-0.032 0-0.048 0h0.002z" />
<glyph unicode="&#xe919;" glyph-name="Measurements-icon-2" d="M729.477 937.498l-707.069-707.162c-13.87-13.93-22.445-33.143-22.445-54.358s8.575-40.427 22.447-54.36l163.047-163.14c13.938-13.853 33.148-22.416 54.358-22.416s40.42 8.563 54.362 22.42l707.158 707.158c13.852 13.952 22.413 33.172 22.413 54.393s-8.561 40.441-22.417 54.397l0.004-0.005-163.003 163.12c-13.959 13.874-33.198 22.449-54.439 22.449s-40.48-8.575-54.443-22.453l0.004 0.004zM201.142 176.049l-38.86-38.86-97.127 97.127 38.837 38.837zM356.583 176.049l-38.837-38.837-174.847 174.824 38.837 38.907 174.824-174.894zM356.583 331.466l-38.837-38.837-97.197 97.057 38.907 38.907 97.104-97.104zM434.303 409.186l-38.837-38.837-97.081 97.081 38.837 38.907 97.081-97.104zM589.674 409.186l-38.837-38.837-174.778 174.778 38.837 38.837 174.778-174.778zM589.674 564.557l-38.837-38.837-97.081 97.057 38.837 38.837 97.081-97.081zM667.394 642.208l-38.837-38.837-97.104 97.104 38.837 38.837zM822.811 642.208l-38.907-38.837-174.778 174.824 38.837 38.907 174.824-174.894zM822.811 797.579l-38.883-38.837-97.081 97.174 38.837 38.883 97.081-97.104z" />
<glyph unicode="&#xe91a;" glyph-name="Measurements-icon-3" horiz-adv-x="687" d="M37.858 38.17c-16.556 27.32-26.354 60.334-26.354 95.637 0 67.828 36.169 127.208 90.273 159.906l0.836 0.469v564.002h0.442c2.419 49.040 41.572 88.192 90.389 90.603l0.223 0.009c1.365 0.070 2.965 0.11 4.573 0.11 51.017 0 92.669-40.099 95.157-90.499l0.009-0.223h0.442v-564.002c26.774-16.154 48.592-37.965 64.285-63.897l0.469-0.835c16.547-27.32 26.339-60.331 26.339-95.63 0-67.833-36.162-127.22-90.259-159.934l-0.835-0.469c-27.252-16.576-60.205-26.388-95.449-26.388-0.009 0-0.018 0-0.026 0h0.001c-0.043 0-0.095 0-0.146 0-67.835 0-127.218 36.185-159.9 90.306l-0.469 0.837zM144.559 223.814c-3.975-2.405-7.35-4.745-10.574-7.269l0.232 0.175c-0.884-0.707-1.768-1.481-2.652-2.21-2.431-1.989-4.752-4.066-6.94-6.254-0.818-0.796-1.613-1.569-2.387-2.409-2.398-2.519-4.707-5.205-6.874-8.006l-0.176-0.237c-0.287-0.354-0.597-0.707-0.884-1.083-2.238-2.966-4.481-6.343-6.521-9.852l-0.264-0.491c-0.464-0.751-0.84-1.569-1.26-2.343-1.503-2.807-2.895-5.636-4.155-8.553-0.508-1.127-0.95-2.21-1.414-3.448-1.171-3.006-2.21-6.056-3.094-9.127-0.243-0.84-0.53-1.635-0.729-2.497-0.9-3.231-1.727-7.257-2.304-11.363l-0.061-0.527c-0.111-0.906-0.177-1.812-0.287-2.718-0.376-3.359-0.597-6.63-0.663-10.1 0-0.553 0-1.105 0-1.68s0-1.061 0-1.591c0-2.21 0.155-4.597 0.332-6.873 0-1.193 0.177-2.365 0.309-3.536 0.265-2.21 0.619-4.42 1.017-6.63 0.243-1.238 0.442-2.497 0.685-3.691 0.464-2.055 0.995-4.066 1.569-6.078 0.398-1.348 0.751-2.696 1.193-4.022 0.597-1.856 1.282-3.669 2.011-5.459 0.553-1.437 1.105-2.873 1.724-4.265s1.591-3.381 2.431-5.061 1.459-2.851 2.21-4.221c0.398-0.707 0.707-1.459 1.127-2.21s1.304-1.901 1.923-2.895 1.503-2.21 2.21-3.426c1.304-1.879 2.674-3.691 4.066-5.459l1.812-2.21c1.702-2.011 3.448-3.934 5.282-5.79l1.282-1.282c2.055-2.011 4.133-3.912 6.321-5.724l0.995-0.818c2.21-1.856 4.619-3.624 7.050-5.26l1.083-0.707c2.409-1.591 4.884-3.094 7.404-4.42 0.486-0.265 0.972-0.508 1.459-0.774 2.475-1.304 4.973-2.497 7.536-3.602 0.597-0.287 1.193-0.508 1.812-0.751 2.542-1.061 5.105-1.989 7.735-2.829l1.834-0.553q4.155-1.26 8.354-2.21l1.326-0.287c3.138-0.619 6.321-1.083 9.503-1.437h0.376c3.174-0.343 6.856-0.539 10.584-0.539 14.15 0 27.642 2.821 39.942 7.931l-0.69-0.254 0.751 0.309c4.627 1.924 8.427 3.805 12.092 5.893l-0.533-0.28h0.177c0.597 0.354 1.238 0.641 1.856 0.972 7.257 4.406 13.543 9.307 19.201 14.847l-0.018-0.018c0.26 0.231 0.498 0.469 0.722 0.721l0.008 0.009c2.839 2.794 5.5 5.742 7.98 8.841l0.153 0.198 0.751 0.928c6.736 8.504 12.268 18.359 16.105 29.023l0.228 0.724c0.464 1.26 0.774 2.542 1.171 3.823 0.597 1.923 1.216 3.845 1.68 5.79s0.707 3.47 1.061 5.194 0.663 3.138 0.884 4.729 0.398 3.47 0.553 5.194 0.354 3.293 0.442 4.973 0 3.028 0 4.531c0 1.901 0 3.823 0 5.724 0 1.238-0.221 2.453-0.309 3.669-0.199 2.21-0.376 4.42-0.685 6.63-0.133 1.039-0.398 2.055-0.575 3.072-0.42 2.21-0.818 4.575-1.392 6.873-0.287 1.127-0.663 2.21-0.972 3.359-0.619 2.077-1.193 4.177-1.923 6.254s-1.635 4.111-2.475 6.144c-0.464 1.061-0.818 2.21-1.304 3.182-3.508 7.386-7.442 13.74-11.981 19.601l0.18-0.241-1.569 1.923q-3.006 3.735-6.343 7.205c-0.751 0.751-1.503 1.503-2.21 2.21-2.21 2.21-4.531 4.199-6.962 6.166-0.751 0.619-1.503 1.282-2.21 1.901-2.896 2.258-6.17 4.519-9.572 6.59l-0.462 0.261v0.663h-25.769v314.842h-54.654v-314.842h-26.874zM144.117 133.379c0 30.177 24.457 54.642 54.631 54.654h0.001c30.185 0 54.654-24.47 54.654-54.654v0c-0.013-30.175-24.477-54.632-54.654-54.632v0c-30.173 0-54.632 24.46-54.632 54.632 0 0.016 0 0.031 0 0.047v-0.002zM375.839 339.377c-10.466 2.201-18.211 11.357-18.211 22.321v0c0 0.016 0 0.034 0 0.053 0 11.063 7.712 20.325 18.054 22.702l0.157 0.030 282.355-0.42c10.465-2.192 18.211-11.343 18.211-22.304 0-0.006 0-0.013 0-0.019v0.001c0-0.020 0-0.043 0-0.066 0-11.055-7.715-20.307-18.055-22.667l-0.156-0.030zM375.839 450.961c-10.466 2.201-18.211 11.357-18.211 22.321v0c0 0.016 0 0.034 0 0.053 0 11.063 7.712 20.325 18.054 22.702l0.157 0.030 145.73-0.42c10.466-2.201 18.211-11.357 18.211-22.321v0c0-0.014 0-0.032 0-0.049 0-11.059-7.714-20.316-18.054-22.685l-0.156-0.030zM375.839 562.546c-10.466 2.201-18.211 11.357-18.211 22.321v0c0 0.016 0 0.034 0 0.053 0 11.063 7.712 20.325 18.054 22.702l0.157 0.030 282.355-0.42c10.465-2.192 18.211-11.343 18.211-22.304 0-0.006 0-0.013 0-0.019v0.001c0-0.020 0-0.043 0-0.066 0-11.055-7.715-20.307-18.055-22.667l-0.156-0.030zM375.839 674.131c-10.466 2.201-18.211 11.357-18.211 22.321v0c0 0.016 0 0.034 0 0.053 0 11.063 7.712 20.325 18.054 22.702l0.157 0.030 145.73-0.42c10.466-2.201 18.211-11.357 18.211-22.321v0c0-0.014 0-0.032 0-0.049 0-11.059-7.714-20.316-18.054-22.685l-0.156-0.030zM375.839 785.716c-10.466 2.201-18.211 11.357-18.211 22.321v0c0 0.016 0 0.034 0 0.053 0 11.063 7.712 20.325 18.054 22.702l0.157 0.030 282.355-0.42c10.465-2.192 18.211-11.343 18.211-22.304 0-0.006 0-0.013 0-0.019v0.001c0-0.020 0-0.043 0-0.066 0-11.055-7.715-20.307-18.055-22.667l-0.156-0.030z" />
<glyph unicode="&#xe91b;" glyph-name="Observations-icon-1" horiz-adv-x="1769" d="M0 334.433c0.725 119.476 54.81 226.174 139.602 297.567l0.593 0.486c48.899 42.23 98.603 83.521 147.938 125.214 38.811 31.869 85.253 56.026 136.079 69.355l2.508 0.559c20.066 5.854 43.496 10.060 67.616 11.769l1.091 0.062c3.733 0.34 6.984 2.164 9.198 4.869l0.019 0.024q36.23 36.498 72.528 72.896c25.783 26.161 61.604 42.368 101.211 42.368 34.085 0 65.366-12.003 89.847-32.012l-0.254 0.201c19.12-15.34 33.855-35.393 42.523-58.419l0.309-0.937c1.743-4.726 3.016-5.798 8.010-3.117 18.94 11.032 41.689 17.545 65.959 17.545s47.018-6.513 66.593-17.885l-0.635 0.341c5.061-2.681 6.234-1.374 8.077 3.352 20.869 53.9 72.295 91.428 132.485 91.428 40.472 0 76.981-16.967 102.802-44.176l0.059-0.062q35.392-35.526 70.718-71.12c2.487-2.896 6.010-4.841 9.989-5.256l0.066-0.006c83.066-6.364 157.497-38.937 216.132-89.365l-0.493 0.415c45.983-39.582 92.905-78.091 138.922-117.64 72.267-60.338 121.859-145.711 135.405-242.634l0.232-2.030c2.599-17.007 4.084-36.628 4.084-56.596 0-217.735-176.509-394.243-394.243-394.243-122.14 0-231.308 55.543-303.622 142.749l-0.526 0.652c-44.722 53.475-75.532 120.029-86.024 193.144l-0.245 2.084c-0.838 5.932-2.681 5.966-7.407 3.586-26.669-14.565-58.418-23.131-92.168-23.131s-65.499 8.565-93.192 23.641l1.024-0.51c-4.692 2.346-6.368 2.38-7.407-3.553-28.723-163.187-121.058-274.827-279.486-321.749s-296.311-3.352-407.75 118.477c-53.525 59.076-88.678 135.689-95.925 220.271l-0.097 1.4c-0.168 1.676-0.268 3.352-0.369 5.061-0.771 10.96-1.14 21.886-1.776 34.923zM1375.678 600.881c-0.194 0.001-0.425 0.001-0.655 0.001-148.581 0-269.029-120.448-269.029-269.029s120.448-269.029 269.029-269.029c144.502 0 262.395 113.926 268.759 256.858l0.020 0.574c0.164 3.511 0.258 7.627 0.258 11.764 0 148.306-120.108 268.559-268.359 268.794h-0.023zM394.88 600.579c-148.581-0.049-269.010-120.509-269.010-269.096 0-148.618 120.478-269.096 269.096-269.096s269.096 120.478 269.096 269.096c0 1.12-0.007 2.238-0.020 3.354l0.002-0.17c-1.44 147.167-121.076 265.913-268.447 265.913-0.252 0-0.503 0-0.755-0.001h0.039zM991.456 455.792c-0.115 58.794-47.803 106.411-106.613 106.411-58.881 0-106.613-47.732-106.613-106.613 0-58.716 47.465-106.345 106.118-106.612h0.026c0.159-0.001 0.348-0.001 0.536-0.001 58.899 0 106.646 47.747 106.646 106.646 0 0.059 0 0.119 0 0.178v-0.009z" />
<glyph unicode="&#xe91c;" glyph-name="Observations-icon-2" horiz-adv-x="996" d="M409.101-48.606c-10.115 4.697-17.003 14.769-17.003 26.449 0 1.426 0.103 2.828 0.301 4.198l-0.019-0.156q0.183 158.791 0 317.56v10.614l-1.876 0.64c-1.944-2.928-3.911-5.833-5.764-8.784q-99.776-159.272-199.438-318.589c-4.648-10.221-14.771-17.2-26.523-17.2-1.343 0-2.664 0.091-3.958 0.267l0.151-0.017c-14.862 1.792-27.199 11.105-33.219 23.966l-0.108 0.258c-1.153 3.177-1.819 6.845-1.819 10.668 0 7.829 2.795 15.005 7.443 20.585l-0.042-0.052q96.071 152.913 191.981 306.008c11.94 19.031 23.812 38.062 35.844 57.185-9.69 14.602-15.473 32.527-15.509 51.8v0.009c-0.102 0.529-0.161 1.138-0.161 1.761 0 5.039 3.834 9.183 8.744 9.673l0.041 0.003q71.618 17.224 143.054 35.203c1.065 0.469 2.306 0.743 3.611 0.743 4.009 0 7.416-2.579 8.653-6.168l0.019-0.064c7.105-12.236 11.298-26.925 11.298-42.593 0-15.224-3.959-29.524-10.903-41.926l0.223 0.434c-1.656-2.342-2.648-5.258-2.648-8.404 0-3.378 1.142-6.489 3.062-8.968l-0.025 0.034q111.282-176.816 222.015-354.021c3.661-5.282 6.358-11.526 7.68-18.262l0.051-0.312c2.287-17.361-7.983-27.655-29.21-36.278-2.87-1.082-6.187-1.708-9.65-1.708-11.373 0-21.169 6.754-25.595 16.469l-0.072 0.176q-99.639 158.791-199.164 317.651c-2.214 3.873-5.095 7.112-8.518 9.663l-0.082 0.059v-10.705q0-157.304 0-314.632c0.22-1.43 0.346-3.080 0.346-4.758 0-10.333-4.758-19.554-12.202-25.593l-0.061-0.048c-6.056-4.293-13.596-6.863-21.737-6.863-0.054 0-0.108 0-0.162 0h0.008c-6.906 0.119-13.438 1.588-19.386 4.153l0.332-0.127zM55.721 473.31c-13.494 14.644-23.87 32.38-29.936 52.009l-0.257 0.967c-8.752 21.943-13.828 47.373-13.828 73.988 0 8.378 0.503 16.639 1.48 24.753l-0.096-0.978c0.847 7.226 2.917 13.8 6.006 19.761l-0.15-0.319c2.787 5.824 7.386 10.407 13.055 13.104l0.166 0.071c43.461 11.437 86.921 21.776 131.388 32.641-0.108-3.36-0.169-7.312-0.169-11.277 0-67.263 17.673-130.399 48.629-185.017l-0.973 1.866c-20.289-4.964-39.709-9.767-59.175-14.502-21.822-5.307-43.781-10.019-65.374-16.012-2.736-0.82-5.882-1.303-9.137-1.327h-0.013c-8.646 0.238-16.333 4.154-21.584 10.233l-0.032 0.038zM264.561 483.42c-17.128 17.090-30.67 37.766-39.407 60.806l-0.394 1.183c-16.704 37.486-26.432 81.227-26.432 127.241 0 7.181 0.237 14.307 0.703 21.37l-0.051-0.96c-0.001 0.17-0.002 0.37-0.002 0.571 0 17.291 5.695 33.253 15.312 46.111l-0.144-0.202c4.34 4.994 9.994 8.739 16.424 10.707l0.251 0.066c56.75 14.388 113.661 28.112 170.526 42.020 1.103 0.155 2.376 0.243 3.671 0.243 0.318 0 0.635-0.005 0.95-0.016l-0.046 0.001c-0.88-10.564-1.382-22.864-1.382-35.282 0-89.874 26.283-173.61 71.582-243.94l-1.075 1.783c-18.299-4.575-36.484-9.15-54.646-13.587-38.886-9.516-77.772-18.482-116.543-28.638-3.421-0.968-7.354-1.542-11.416-1.578h-0.021c-10.95 0.184-20.792 4.783-27.85 12.089l-0.011 0.011zM517.478 519.744c-21.887 25.103-39.274 54.788-50.496 87.346l-0.558 1.863c-17.261 44.888-27.317 96.814-27.449 151.073v0.056c-0.032 1.16-0.049 2.525-0.049 3.895 0 23.557 5.315 45.873 14.812 65.814l-0.397-0.927c5.737 11.742 16.442 20.296 29.302 22.986l0.274 0.048q193.766 47.098 387.371 94.881c3.562 1.578 7.716 2.497 12.084 2.497 16.084 0 29.26-12.454 30.41-28.245l0.006-0.099q34.997-142.047 69.651-284.118c1.429-3.341 2.259-7.228 2.259-11.31 0-15.306-11.682-27.884-26.616-29.305l-0.118-0.009q-192.37-46.571-384.878-92.937c-4.739-1.238-10.189-1.97-15.802-2.013h-0.027c-15.906 0.088-30.128 7.22-39.718 18.433l-0.060 0.072z" />
<glyph unicode="&#xe91d;" glyph-name="Observations-icon-3" horiz-adv-x="739" d="M586.106-52.426q-271.319 0.805-542.662 1.795c-0.527-0.005-1.149-0.008-1.773-0.008-7.807 0-15.51 0.446-23.084 1.314l0.925-0.086c-2.439 0.322-6.328 3.429-6.489 5.523-1.422 9.316-2.235 20.063-2.235 31 0 19.55 2.596 38.493 7.461 56.504l-0.348-1.513c7.384 27.508 32.094 47.428 61.458 47.428 0.875 0 1.747-0.018 2.614-0.053l-0.124 0.004c34.516 0 68.894 0.736 103.341 0.874 57.849 0.207 115.652 0.322 173.501 0 8.307 0 10.378 2.6 10.24 10.562-0.437 27.038-0.161 54.121-0.138 81.182v15.44c16.361 0 31.364 0 46.367 0 8.928 0 17.856 0.276 26.738 0.874 0.084-0.001 0.183-0.001 0.282-0.001 18.224 0 32.997 14.773 32.997 32.997 0 0.227-0.002 0.453-0.007 0.679l0.001-0.034c0.759 21.193 0.713 42.409 0.874 63.648 0 4.602 0 8.376 5.868 9.549 23.562 5.48 42.358 22.006 50.892 43.694l0.169 0.487c9.195 18.237 14.579 39.749 14.579 62.518 0 23.65-5.809 45.943-16.078 65.531l0.371-0.777c-9.826 20.18-10.447 20.295 6.121 36.15 21.047 18.666 36.248 43.496 42.78 71.65l0.181 0.926c1.589 7.21 2.499 15.492 2.499 23.986 0 18.745-4.433 36.454-12.308 52.136l0.305-0.67c-2.508 5.154-4.602 10.493-8.1 18.409 5.177-2.301 7.801-3.383 10.286-4.602 61.241-33.56 108.030-87.056 132.214-151.596l0.65-1.978c11.949-31.717 18.866-68.378 18.866-106.654 0-16.568-1.296-32.833-3.792-48.7l0.228 1.758c-9.454-85.409-55.735-158.398-122.374-203.657l-0.987-0.632c-9.193-4.807-15.359-14.275-15.359-25.184 0-1.36 0.096-2.697 0.281-4.006l-0.017 0.15c0.482-5.866 0.757-12.697 0.757-19.593 0-5.752-0.191-11.46-0.568-17.117l0.041 0.767c-0.161-6.167 2.301-7.893 8.169-7.939 20.917 0 41.833-0.253 62.727-1.035 0.473 0.012 1.029 0.018 1.587 0.018 24.474 0 45.952-12.83 58.073-32.132l0.167-0.285c4.519-6.734 7.679-14.755 8.894-23.401l0.035-0.3c2.301-26.347 2.669-52.925 4.096-79.226 0.414-7.755-4.74-6.397-9.204-6.397q-47.287 0-94.597-0.138zM433.729 233.206c-0.575 0-1.151 0-1.703 0q-41.419 0-83.046 0h-265.705v70.827h357.103c0-22.481 0-43.996 0-65.489 0-4.602-2.301-5.315-5.177-5.315zM233.007 376.034c-3.687 0.358-6.947 1.95-9.415 4.352l0.003-0.003c-10.194 9.826-20.203 19.812-29.661 30.328-2.481 3.131-3.981 7.139-3.981 11.497 0 0.003 0 0.006 0 0.009v0c-0.322 30.121-0.391 60.265 0 90.386 0.018 0.314 0.028 0.682 0.028 1.052 0 5.963-2.681 11.299-6.903 14.87l-0.029 0.024c-9.711 8.951-22.343 17.051-27.13 28.303-1.735 7.183-2.73 15.429-2.73 23.908 0 5.366 0.399 10.64 1.168 15.792l-0.071-0.582c0 55.64-0.138 111.326 0.299 166.966 0.276 5.503 2.492 10.441 5.973 14.189l-0.013-0.014c31.893 32.215 29.201 23.287 29.339 71.333 0 2.462 0 4.924 0 7.363-0.207 16.821-0.207 16.89-16.338 20.411-9.22 1.329-16.319 8.87-16.956 18.187l-0.003 0.061c-0.347 5.742-0.544 12.455-0.544 19.214s0.198 13.472 0.587 20.134l-0.043-0.92c0.253 7.847 5.385 10.976 12.932 11.298 31.318 1.358 62.635 2.899 92.71 4.303 30.788-1.427 60.265-2.669 89.742-4.257 12.38-0.667 14.198-2.048 15.463-14.773 0.717-5.846 1.126-12.615 1.126-19.479 0-5.091-0.225-10.13-0.666-15.106l0.046 0.644c0.027-0.376 0.043-0.815 0.043-1.257 0-10.167-8.242-18.409-18.409-18.409-1.006 0-1.994 0.081-2.956 0.236l0.106-0.014c-9.987-0.207-12.955-4.901-12.955-13.576-0.248-5.349-0.389-11.62-0.389-17.924 0-8.93 0.283-17.793 0.841-26.582l-0.061 1.2c2.006-8.432 5.225-15.862 9.515-22.538l-0.172 0.287c1.4-2.45 3.327-4.451 5.637-5.896l0.069-0.040c12.904-8.361 21.321-22.689 21.321-38.983 0-3.621-0.416-7.145-1.202-10.527l0.061 0.313c-0.365-4.397-0.573-9.518-0.573-14.687 0-3.26 0.083-6.5 0.246-9.719l-0.018 0.452c-0.001-14.527-4.769-27.941-12.825-38.762l0.123 0.173c-14.285-19.6-22.855-44.16-22.855-70.723 0-13.379 2.174-26.251 6.188-38.281l-0.247 0.853c1.628-6.1 3.513-11.303 5.786-16.292l-0.263 0.645c1.873-3.32 2.977-7.29 2.977-11.517 0-6.294-2.446-12.017-6.44-16.269l0.012 0.013c-4.565-7.138-7.276-15.844-7.276-25.182 0-0.224 0.002-0.447 0.005-0.669v0.034c-1.012-26.715-0.345-53.5-0.989-80.238-0.362-5.19-2.381-9.85-5.526-13.515l0.026 0.031c-6.42-7.409-14.175-13.622-21.032-20.71-6.918-7.107-16.578-11.517-27.267-11.517-0.324 0-0.647 0.004-0.969 0.012l0.048-0.001c-8.675 0-17.373-0.184-26.048-0.184-6.673 0.046-13.070 0.092-19.467 0.276zM455.98 528.71c-48.932 1.285-88.108 41.257-88.108 90.38 0 0.075 0 0.15 0 0.225v-0.012c1.619 48.534 41.353 87.264 90.132 87.264 0.397 0 0.793-0.003 1.189-0.008l-0.060 0.001c48.258-1.688 86.785-41.027 87.164-89.452v-0.037c-1.166-48.856-40.895-88.053-89.85-88.361h-0.030z" />
<glyph unicode="&#xe91e;" glyph-name="Photograph-icon" horiz-adv-x="1138" d="M113.775-63.974c-62.751 0.189-113.571 51-113.775 113.73v682.721c0.204 62.754 51.021 113.571 113.755 113.775h180.345l104.099 113.775h341.35l104.099-113.775h180.325c62.754-0.204 113.571-51.021 113.775-113.755v-682.721c-0.204-62.749-51.024-113.56-113.757-113.749h-0.018zM284.424 391.125c0.059-157.083 127.391-284.406 284.472-284.45h0.004c157.074 0.059 284.392 127.376 284.45 284.445v0.005c-0.044 157.080-127.37 284.406-284.446 284.45h-0.004c-157.094-0.044-284.432-127.382-284.476-284.472v-0.004zM386.855 391.125c0 0.008 0 0.017 0 0.026 0 100.527 81.493 182.019 182.019 182.019 0.009 0 0.018 0 0.027 0h-0.001c100.541 0 182.045-81.504 182.045-182.045v0c-0.015-100.535-81.51-182.030-182.044-182.045h-0.001c-100.532 0-182.030 81.49-182.045 182.018v0.001z" />
<glyph unicode="&#xe91f;" glyph-name="Process-icon" d="M278.718 903.056c-166.738-86.345-278.72-257.569-278.72-454.949 0-0.451 0.001-0.901 0.002-1.351v0.070c0.266-37.974 4.738-74.765 12.971-110.111l-0.661 3.366 442.361 402.847c-47.194 42.912-171.206 155.754-175.953 160.105zM723.197 914.016c-61.417 29.037-133.422 45.989-209.386 45.989-55.306 0-108.513-8.986-158.241-25.577l3.527 1.020 364.030-331.195v309.762zM800.993 868.777v-590.854h193.942c18.405 50.496 29.048 108.79 29.048 169.569 0 174.399-87.632 328.331-221.264 420.164l-1.726 1.121zM36.908 257.188c39.401-96.303 104.018-175.523 185.713-231.7l1.736-1.128v403.475l-113.819-103.603c-38.863-35.256-71.233-64.88-73.63-67.044zM302.199-20.855c47.437-22.092 102.518-37.399 160.447-42.962l2.056-0.16h93.992c173.136 17.272 319.41 118.26 399.207 261.378l1.336 2.61h-657.084v-220.866z" />
<glyph unicode="&#xe920;" glyph-name="Risk-icon" horiz-adv-x="1186" d="M0-64h1185.673l-592.837 1024zM646.719 97.673h-107.765v107.817h107.791zM646.719 313.255h-107.765v215.582h107.791z" />
<glyph unicode="&#xe921;" glyph-name="Scan-icon" horiz-adv-x="1216" d="M1053.854-50.192v996.383h148.633v-996.383zM905.221-50.192v996.383h74.565v-996.383zM682.326-50.192v996.383h74.565v-996.383zM459.432-50.192v996.383h148.771v-996.383zM311.213-50.192v996.383h74.123v-996.383zM13.808-50.192v996.383h148.633v-996.383z" />
<glyph unicode="&#xe922;" glyph-name="Security-icon" horiz-adv-x="838" d="M418.91 960l-418.91-186.18v-279.28c0-258.335 178.742-499.892 418.91-558.54 240.168 58.647 418.91 300.226 418.91 558.54v279.28zM325.81 215.28l-186.18 186.18 65.636 65.636 120.544-120.135 306.744 306.765 65.636-66.086z" />
<glyph unicode="&#xe923;" glyph-name="Signature-icon" horiz-adv-x="1141" d="M538.867-57.095c-164.957 59.451 114.155 301.982 114.155 301.982s-134.892-61.753-201.539-98.044c-92.278-50.27-178.766-107.517-271.844-156.769-50.124-26.649-116.674-57.562-166.508-11.289-51.99 48.235 62.165 256.46 139.423 263.365 5.669 0.606 43.317 8.067 33.626-34.038s-112.943-127.479-122.052-163.819 31.809-21.561 77.209 3.198c61.026 30.065 116.093 67.034 175.447 99.328 94.483 51.505 189.765 117.934 285.532 167.961 21.231 10.991 45.876 19.263 71.876 23.501l1.433 0.193c18.993 3.077 51.699 2.762 57.828-5.693 4.503-7.478 7.166-16.505 7.166-26.155 0-9.549-2.608-18.488-7.151-26.145l0.13 0.237c-38.762-58.434-85.592-113.501-123.24-172.419-13.373-18.291-70.256-149.913 75.659-47.871 72.97 42.517 140.028 91.721 214.088 132.882 25.050 13.906 123.554 47.193 100.297-53.807-8.189-46.902 21.683-76.604 71.54-74.811 46.442 1.672 70.886-24.614 68.585-50.875-2.423-28.563-36.654-57.126-108.728-49.809-84.138 8.6-101.242 38.98-96.615 155.606-63.594-36.63-117.619-68.052-172.007-99.013-38.354-24.547-83.68-49.58-130.589-71.819l-7.695-3.282c-15.823-6.136-34.137-9.691-53.28-9.691-0.006 0-0.012 0-0.018 0h0.001c-1.161-0.079-2.518-0.123-3.884-0.123-10.561 0-20.497 2.674-29.168 7.382l0.322-0.16zM183.394 433.028l380.935 408.505 138.526-129.151-380.935-408.505-133.826-4.676zM601.201 881.070l62.989 67.592c6.509 6.993 15.765 11.353 26.040 11.353 9.397 0 17.942-3.647 24.297-9.603l-0.019 0.018 86.464-80.625c6.979-6.511 11.33-15.762 11.33-26.029 0-9.401-3.647-17.949-9.604-24.308l0.018 0.020-62.989-67.592z" />
<glyph unicode="&#xe924;" glyph-name="Time-icon" d="M512 960c-282.77 0-512-229.23-512-512s229.23-512 512-512c282.77 0 512 229.23 512 512v0c-0.857 282.424-229.575 511.142-511.917 512h-0.083zM727.040 232.96l-266.24 163.84v307.2h76.8v-266.24l230.4-138.24-40.96-66.56z" />
<glyph unicode="&#xe925;" glyph-name="Uninstallation-icon" horiz-adv-x="1215" d="M605.547 103.612h-564.892c-0.424-0.016-0.921-0.026-1.421-0.026-21.845 0-39.554 17.709-39.554 39.554 0 2.479 0.228 4.906 0.665 7.259l-0.038-0.244v142.778c-0.009 0.332-0.015 0.723-0.015 1.116 0 23.429 18.993 42.421 42.421 42.421 0.392 0 0.783-0.005 1.173-0.016l-0.057 0.001h564.815c46.39 99.731 145.737 167.632 260.943 167.632 123.464 0 228.713-77.984 269.179-187.381l0.643-1.987-270.017-3.098v-186.249h266.893c-41.897-110.908-146.788-188.528-269.929-189.449l-0.113-0.001c-0.936-0.011-2.042-0.018-3.149-0.018-114.3 0-212.696 68.095-256.832 165.93l-0.717 1.776zM815.81 819.833c-78.362-0.151-150.054-28.58-205.446-75.621l0.457 0.378 144.929-144.954h-360.338v360.338l144.11-144.135c73.453 64.641 170.439 104.089 276.638 104.089 185.086 0 342.187-119.82 397.965-286.123l0.861-2.96-94.904-31.208c-43.486 128.878-163.212 220.053-304.254 220.197h-0.018z" />
<glyph unicode="&#xe926;" glyph-name="Measurements-icon-1" horiz-adv-x="1189" d="M602.573 802.456c0.013 0 0.029 0 0.044 0 41.301 0 74.783 33.481 74.783 74.783 0 0.016 0 0.031 0 0.047v-0.002c0.015 0.586 0.024 1.276 0.024 1.969 0 44.609-36.163 80.772-80.772 80.772-0.692 0-1.383-0.009-2.071-0.026l0.102 0.002c-0.013 0-0.029 0-0.044 0-41.301 0-74.783-33.481-74.783-74.783 0-0.016 0-0.031 0-0.047v0.002c-0.015-0.586-0.024-1.276-0.024-1.969 0-44.609 36.163-80.772 80.772-80.772 0.692 0 1.383 0.009 2.071 0.026l-0.102-0.002zM1173.654 329.848h-23.624l-157.544 303.264c23.86 4.678 44.963 11.485 64.893 20.44l-1.866-0.75c16.181 6.911 27.315 22.689 27.315 41.067 0 13.472-5.982 25.546-15.435 33.712l-0.057 0.048c-7.657 8.192-18.527 13.298-30.59 13.298-7.578 0-14.686-2.015-20.816-5.539l0.203 0.108c-19.6-9.396-42.536-15.141-66.748-15.752l-0.212-0.004c-70.893 0-98.451 78.761-354.467 78.761s-283.574-78.761-354.467-78.761c-24.46 1.122-47.318 6.811-68.127 16.229l1.167-0.472c-5.764 2.716-12.519 4.302-19.645 4.302-12.165 0-23.251-4.621-31.597-12.204l0.039 0.035c-8.648-8.437-14.011-20.207-14.011-33.229 0-18.136 10.403-33.842 25.568-41.477l0.267-0.122c17.63-7.484 38.683-14.255 60.432-19.195l2.594-0.496-157.544-303.264h-23.624c-8.973-1.117-15.848-8.696-15.848-17.88 0-0.637 0.033-1.267 0.098-1.887l-0.007 0.078c11.823-78.761 114.207-137.853 236.304-137.853s220.548 59.071 236.304 137.853c0 7.867-7.867 19.69-15.757 19.69h-15.757l-157.544 303.264c102.407 7.867 157.544 59.071 236.304 59.071v-598.639c-43.443-0.138-78.623-35.318-78.761-78.748v-0.013h-86.628c-39.901-3.683-70.903-36.993-70.903-77.544 0-0.428 0.003-0.855 0.010-1.281l-0.001 0.064h630.152c-1.174 43.854-37.004 78.956-81.032 78.956-1.977 0-3.937-0.071-5.879-0.21l0.261 0.015h-70.893c-0.138 43.443-35.318 78.623-78.748 78.761h-0.013v598.639c78.761 0 133.898-51.203 236.304-59.071l-157.544-303.264h-23.624c-8.973-1.117-15.848-8.696-15.848-17.88 0-0.637 0.033-1.267 0.098-1.887l-0.007 0.078c11.823-78.761 114.207-137.853 236.304-137.853s220.548 59.071 236.304 137.853c0.058 0.543 0.091 1.172 0.091 1.81 0 9.185-6.875 16.764-15.76 17.871l-0.088 0.009zM362.335 329.848h-236.371l118.141 220.548zM834.943 329.848l118.141 220.548 118.141-220.548z" />
</font>
</defs>
</svg>
