<svg xmlns="http://www.w3.org/2000/svg" width="15.25" height="12.419" viewBox="0 0 15.25 12.419">
  <path id="Offsite-Event-icon" d="M-58.738,4490.128c-.821-.014-2.122.03-2.122.03v-10.1s2.745-.048,3.669,0v3.1h2.32l2.32,3.1v3.875H-54.1a2.319,2.319,0,0,1-2.32,2.324A2.319,2.319,0,0,1-58.738,4490.128Zm1.16,0a1.159,1.159,0,0,0,1.16,1.161,1.159,1.159,0,0,0,1.16-1.161,1.16,1.16,0,0,0-1.16-1.164A1.161,1.161,0,0,0-57.578,4490.128Zm.387-3.875h3.45l-1.516-1.937h-1.934Zm-10.3,3.711a.456.456,0,0,1-.3-.461.471.471,0,0,1,.3-.47l4.715.008a.459.459,0,0,1,.3.462.471.471,0,0,1-.3.47Zm1.931-2.059a.462.462,0,0,1-.343-.461.473.473,0,0,1,.343-.47l2.745.008a.462.462,0,0,1,.343.461.475.475,0,0,1-.343.471ZM-67.5,4485.6a.458.458,0,0,1-.3-.461.472.472,0,0,1,.3-.472l4.715.009a.456.456,0,0,1,.3.461.47.47,0,0,1-.3.47Zm1.931-2.307a.463.463,0,0,1-.343-.461.475.475,0,0,1,.343-.471l2.745.009a.462.462,0,0,1,.343.461.473.473,0,0,1-.343.47Zm-1.931-2.06a.458.458,0,0,1-.3-.461.471.471,0,0,1,.3-.471l4.715.009a.456.456,0,0,1,.3.461.47.47,0,0,1-.3.47Z" transform="translate(67.801 -4480.033)" fill="#1b222d"/>
</svg>
