<svg xmlns="http://www.w3.org/2000/svg" width="29.999" height="30" viewBox="0 0 29.999 30">
  <path id="Add-translation-icon" d="M-13655-5649h-20a5,5,0,0,1-5-5v-20a5.006,5.006,0,0,1,5-5h20a5.006,5.006,0,0,1,5,5v20A5,5,0,0,1-13655-5649Zm-7.46-9.308h3.547l.844,2.238h1.494l-3.361-8.957h-1.493l-3.358,8.957h1.494l.834-2.238Zm-7.786-8.212a13.132,13.132,0,0,0,2.225,3.406l-3.8,3.746,1.058,1.061,3.735-3.732,2.321,2.321.566-1.524-1.9-1.871.021-.024a13.015,13.015,0,0,0,2.771-4.875h2.188v-1.494h-5.226V-5671h-1.493v1.493H-13673v1.487h8.339a11.682,11.682,0,0,1-2.365,4,11.628,11.628,0,0,1-1.727-2.5Zm10.773,6.719h-2.417l1.208-3.23,1.209,3.229Z" transform="translate(13680 5679.001)" fill="#003883"/>
</svg>
